<?xml version="1.0" encoding="utf-8"?>
<!-- Generator: Adobe Illustrator 26.0.3, SVG Export Plug-In . SVG Version: 6.00 Build 0)  -->
<svg version="1.1" id="Livello_1" xmlns="http://www.w3.org/2000/svg" xmlns:xlink="http://www.w3.org/1999/xlink" x="0px" y="0px"
	 viewBox="0 0 512 512" style="enable-background:new 0 0 512 512;" xml:space="preserve">
<style type="text/css">
	.st0{fill:#FFFFFF;}
</style>
<g transform="translate(0.000000,512.000000) scale(0.100000,-0.100000)">
	<path class="st0" d="M2420,4954c-200-26-408-102-565-207c-83-56-108-77-203-170c-172-170-294-396-348-647c-26-119-26-381,0-500
		c110-512,494-896,1006-1006c119-26,381-26,500,0c513,111,895,493,1006,1006c26,119,26,381,0,500c-111,513-494,896-1006,1006
		C2737,4951,2490,4963,2420,4954z"/>
	<path class="st0" d="M1287,2530c-188-95-325-198-479-359c-234-243-395-559-459-893c-18-93-22-163-26-388c-6-304,0-357,47-458
		c36-77,133-178,208-216c112-57,89-56,1184-56h1007l-102,103c-56,56-131,143-165,192c-318,451-347,1058-73,1535c54,95,54,97-30,99
		c-20,1-83,10-140,22c-287,57-547,187-776,388c-50,45-93,81-95,81S1341,2557,1287,2530z"/>
	<path class="st0" d="M3525,2389c-240-35-463-147-635-319c-418-418-440-1076-52-1527c214-249,560-397,886-380c184,9,317,46,478,129
		c479,250,710,819,542,1334c-130,399-480,697-894,759C3746,2401,3619,2403,3525,2389z M3768,1733c58-43,67-66,70-183l4-108l108-4
		c91-2,113-6,136-24c53-39,69-71,69-134s-16-95-69-134c-23-18-45-22-136-24l-108-4l-4-108c-3-117-12-140-72-184c-39-29-133-29-172,0
		c-60,44-69,67-72,184l-4,108l-108,4c-117,3-140,12-184,72c-29,39-29,133,0,172c44,60,67,69,185,72l109,4v93c0,128,22,178,95,211
		C3655,1765,3734,1758,3768,1733z"/>
</g>
</svg>
