<?xml version="1.0" encoding="utf-8"?>
<!-- Generator: Adobe Illustrator 26.0.3, SVG Export Plug-In . SVG Version: 6.00 Build 0)  -->
<svg version="1.1" id="Livello_1" xmlns="http://www.w3.org/2000/svg" xmlns:xlink="http://www.w3.org/1999/xlink" x="0px" y="0px"
	 viewBox="0 0 512 512" style="enable-background:new 0 0 512 512;" xml:space="preserve">
<style type="text/css">
	.st0{fill:#FFFFFF;}
</style>
<g transform="translate(0.000000,512.000000) scale(0.100000,-0.100000)">
	<path class="st0" d="M2447.2,4447.6c-93-55.5-127.5-129-127.5-285v-129l-78-18c-43.5-10.5-135-45-202.5-76.5
		c-373.5-177-523.5-547.5-387-952.5c49.5-145.5,115.5-247.5,228-352.5c117-108,271.5-186,574.5-291c415.5-144,535.5-222,570-370.5
		c24-99,12-207-28.5-265.5c-127.5-178.5-546-222-781.5-79.5c-78,46.5-135,144-135,229.5c0,111-118.5,223.5-235.5,223.5
		c-115.5,0-217.5-82.5-238.5-190.5c-16.5-88.5,16.5-253.5,75-373.5c94.5-189,325.5-360,556.5-412.5l79.5-18l6-147
		c3-120,10.5-154.5,36-189c109.5-147,292.5-147,402,0c25.5,34.5,33,69,36,189l6,145.5l97.5,25.5c220.5,58.5,432,208.5,529.5,376.5
		c118.5,207,117,504-1.5,754.5c-66,141-234,304.5-396,390c-66,34.5-231,100.5-366,147c-465,159-559.5,231-580.5,441
		c-19.5,178.5,82.5,291,306,340.5c291,64.5,612-49.5,640.5-229.5c4.5-31.5,12-81,16.5-109.5c6-31.5,28.5-72,64.5-106.5
		c156-156,406.5-45,406.5,180c0,267-168,516-435,642c-70.5,34.5-163.5,69-205.5,79.5l-79.5,18v126c0,151.5-22.5,211.5-96,268.5
		C2627.2,4486.6,2528.2,4494.1,2447.2,4447.6z"/>
</g>
</svg>
