<?xml version="1.0" encoding="utf-8"?>
<!-- Generator: Adobe Illustrator 26.0.3, SVG Export Plug-In . SVG Version: 6.00 Build 0)  -->
<svg version="1.1" id="Livello_1" xmlns="http://www.w3.org/2000/svg" xmlns:xlink="http://www.w3.org/1999/xlink" x="0px" y="0px"
	 viewBox="0 0 48 48" style="enable-background:new 0 0 48 48;" xml:space="preserve">
<style type="text/css">
	.st0{fill:#FFFFFF;}
</style>
<g transform="translate(0.000000,48.000000) scale(0.100000,-0.100000)">
	<path class="st0" d="M145,351c-43-38-81-74-83-80c-9-26,28-6,101,55l77,65l78-65c72-62,102-78,102-57c0,5-7,14-15,21
		c-9,7-15,29-15,51c0,29-4,39-16,39c-9,0-22-7-28-15c-10-14-17-11-53,20c-23,19-47,35-55,34C231,419,189,388,145,351z"/>
	<path class="st0" d="M163,297l-73-62v-61c0-74,11-86,72-82l43,3l3,53c3,50,4,52,32,52s29-2,32-52l3-53l43-3c61-4,72,8,72,82v61
		l-75,63c-41,34-76,62-77,61C236,359,202,331,163,297z"/>
</g>
</svg>
