<?xml version="1.0" encoding="utf-8"?>
<!-- Generator: Adobe Illustrator 26.0.3, SVG Export Plug-In . SVG Version: 6.00 Build 0)  -->
<svg version="1.1" id="Livello_1" xmlns="http://www.w3.org/2000/svg" xmlns:xlink="http://www.w3.org/1999/xlink" x="0px" y="0px"
	 viewBox="0 0 512 512" style="enable-background:new 0 0 512 512;" xml:space="preserve">
<style type="text/css">
	.st0{fill:#FFFFFF;}
</style>
<g transform="translate(0.000000,512.000000) scale(0.100000,-0.100000)">
	<path class="st0" d="M2750,4820l-16-37c-8-21-49-120-91-220c-42-101-79-183-83-183s-41,82-83,183c-42,100-83,199-91,220l-16,37
		H2750z"/>
	<path class="st0" d="M2665,2725c-292,75-568-176-518-471c58-337,468-470,709-230C3083,2252,2977,2644,2665,2725z M2697,2311
		c-6-52-31-90-78-113c-45-23-86-23-127,2c-94,57-94,183,0,240C2585,2496,2708,2419,2697,2311z"/>
	<path class="st0" d="M1865,2457v-273l-595-247c-327-135-602-249-611-252c-12-5-20,10-38,69c-96,332-105,724-25,1041
		c38,148,45,167,62,160c10-3,285-117,612-252L1865,2457z"/>
	<path class="st0" d="M2162,1729c-2-12-492-1190-499-1203c-6-10-31,0-106,44c-306,176-571,442-747,745c-31,55-56,101-55,103
		c2,2,276,117,611,255l607,252l96-95C2121,1778,2163,1732,2162,1729z"/>
	<path class="st0" d="M3108,377c-357-101-756-100-1114,4c-59,18-74,26-69,38c3,9,117,284,252,611l247,595h272l247-595
		c135-327,249-602,252-611C3200,406,3183,398,3108,377z"/>
	<path class="st0" d="M4309,1315c-174-302-441-570-744-745c-55-31-102-56-104-54c-1,1-116,276-255,610l-251,607l95,96l95,96l65-26
		c36-15,301-125,590-244c289-120,534-222,546-229C4367,1415,4366,1413,4309,1315z"/>
	<path class="st0" d="M4574,2320c-1-234-16-356-71-548c-21-75-29-92-42-87c-9,3-284,117-611,252l-595,246v273l605,252
		c333,138,608,251,612,251c4,1,13-23,22-51C4560,2677,4574,2572,4574,2320z"/>
	<path class="st0" d="M4369,3222l-47-20c-77-33-1165-483-1171-484c-3-1-49,41-101,93l-95,96l215,519c118,285,232,561,253,611l39,93
		l56-29c31-16,104-60,162-98c144-95,294-226,402-351c94-109,209-275,259-373L4369,3222z"/>
	<path class="st0" d="M3195,4221c-3-9-117-284-252-611l-247-595h-272l-247,595c-135,327-249,602-252,611c-5,13,9,20,68,38
		c63,18,239,57,272,60c6,1,46-85,90-190c43-105,87-202,98-215c42-54,117-69,174-34c44,26,52,40,139,250c42,102,77,186,79,188
		c4,5,211-38,283-60C3186,4241,3200,4234,3195,4221z"/>
	<path class="st0" d="M2162,2911c1-3-41-49-93-101l-96-95l-549,227c-302,125-577,239-611,254l-62,26l28,56c50,99,165,265,259,374
		c144,167,350,333,545,438c59,32,73,37,80,25c4-8,118-281,253-606C2051,3183,2162,2914,2162,2911z"/>
</g>
</svg>
