<?xml version="1.0" encoding="utf-8"?>
<!-- Generator: Adobe Illustrator 26.0.3, SVG Export Plug-In . SVG Version: 6.00 Build 0)  -->
<svg version="1.1" id="Livello_1" xmlns="http://www.w3.org/2000/svg" xmlns:xlink="http://www.w3.org/1999/xlink" x="0px" y="0px"
	 viewBox="0 0 512 512" style="enable-background:new 0 0 512 512;" xml:space="preserve">
<style type="text/css">
	.st0{fill:#FFFFFF;}
</style>
<g transform="translate(0.000000,512.000000) scale(0.100000,-0.100000)">
	<path class="st0" d="M2928,4892c-16,25-45,60-65,78c-77,63-23,60-1282,59c-630-1-1160-4-1178-9c-94-22-172-104-193-204
		c-8-36-10-585-8-1911c3-1691,4-1863,19-1896c26-56,79-110,134-135l50-24h1180c1129,0,1182,1,1221,19c51,23,104,75,130,127
		c19,38,19,80,19,1944v1905L2928,4892z M2855,1065l-23-37c-13-21-40-45-66-57c-43-21-45-21-1199-19c-1155,3-1156,3-1184,24
		c-15,11-38,36-51,54l-22,33l2,1881l3,1881l22,31c48,68-35,64,1249,64h1161l33-23c19-12,43-38,54-57c21-35,21-37,21-1905V1065z"/>
	<path class="st0" d="M2834,4840c-11,19-35,45-54,57l-33,23H1586c-1284,0-1201,4-1249-64l-22-31l-3-1881l-2-1881l22-33
		c13-18,36-43,51-54c28-21,29-21,1184-24c1154-2,1156-2,1199,19c26,12,53,36,66,57l23,37v1870C2855,4803,2855,4805,2834,4840z
		 M974,4193c-12-20-23-23-78-23c-76,0-91,13-83,66c10,63-3,74-88,74c-66,0-76-3-86-21c-8-16-8-28,0-46c9-20,9-30-4-49
		c-14-21-23-24-78-24c-36,0-68,5-75,12c-22,22-14,65,17,87c20,14,40,50,69,118c42,104,102,283,102,308c0,8,9,24,20,35
		c11,11,26,20,33,20c23,0,57-31,57-51c0-33,88-285,125-359c19-38,43-71,54-75C985,4257,993,4220,974,4193z M2097,2868
		c-30-44-69-82-159-150c-66-50-166-128-221-174c-55-46-107-85-116-85c-41-3-63,10-185,110c-72,59-165,132-206,163
		c-134,98-190,181-212,314c-21,122,17,239,104,320c49,46,78,61,138,74c90,20,182-15,276-103l64-59l62,56c86,78,154,110,233,109
		C2132,3441,2260,3111,2097,2868z M2671,1609c-18-13-43-52-64-98c-36-78-98-258-112-321c-10-47-22-60-55-60c-15,0-32,6-37,13
		c-6,6-25,60-42,119c-40,137-116,320-138,335c-36,25-43,34-43,58c0,13,10,31,22,39c25,18,84,21,122,6c29-11,44-53,26-74
		c-8-11-9-20,0-35c9-19,20-21,89-21c89,0,95,5,85,69c-5,33-3,41,17,55c34,23,114,21,139-4C2708,1662,2705,1634,2671,1609z"/>
	<path class="st0" d="M3085,4360c-10-31,4-79,28-95c12-7,384-221,827-475c443-253,818-474,834-489c22-22,30-41,33-78l5-48l-804-1405
		c-442-773-820-1432-839-1465c-42-72-87-105-142-105c-34,0-102,36-461,244c-496,287-469,272-528,281c-61,9-90,0-86-28
		c2-17,108-83,488-303c297-173,504-287,533-294c81-21,171,6,229,67c37,39,1688,2928,1705,2983c25,81-2,174-69,236
		c-38,36-1707,994-1731,994C3098,4380,3088,4371,3085,4360z"/>
	<path class="st0" d="M3114,4027l-29-25l-5-1494l-5-1493l-32-67c-38-81-102-146-181-185c-52-25-69-28-199-33c-118-4-145-8-160-23
		c-13-13-15-21-7-34c5-9,104-69,220-134c181-103,215-118,255-119c32,0,56,7,79,22c25,18,191,300,782,1333c413,721,755,1325,760,1344
		c13,46-3,99-39,132c-33,31-1349,785-1385,794C3150,4050,3135,4045,3114,4027z"/>
</g>
</svg>
