<?xml version="1.0" encoding="utf-8"?>
<!-- Generator: Adobe Illustrator 26.0.3, SVG Export Plug-In . SVG Version: 6.00 Build 0)  -->
<svg version="1.1" id="Livello_1" xmlns="http://www.w3.org/2000/svg" xmlns:xlink="http://www.w3.org/1999/xlink" x="0px" y="0px"
	 viewBox="0 0 512 512" style="enable-background:new 0 0 512 512;" xml:space="preserve">
<style type="text/css">
	.st0{fill:#FFFFFF;}
</style>
<g transform="translate(0.000000,512.000000) scale(0.100000,-0.100000)">
	<path class="st0" d="M2200,5011c-642-220-1493-542-1566-592c-80-55-110-98-132-195c-160-687-172-1918-22-2365
		c173-517,798-1144,1650-1656c317-191,410-225,517-190c134,44,582,318,866,530c312,233,642,538,808,747c158,198,276,400,334,573
		c95,284,118,1117,49,1832c-18,193-61,516-75,567c-10,41-92,136-142,167c-81,50-1397,538-1780,660c-55,18-118,31-145,30
		C2529,5119,2420,5086,2200,5011z M2683,3385c190-49,338-199,382-387c48-204-34-419-205-540l-60-42v-258c0-282-2-296-59-360
		c-101-116-293-97-376,36l-30,49l-3,267l-3,266l-37,19c-56,30-153,133-189,201c-108,204-71,447,91,610
		C2323,3375,2513,3429,2683,3385z"/>
</g>
</svg>
