<?xml version="1.0" encoding="utf-8"?>
<!-- Generator: Adobe Illustrator 26.0.3, SVG Export Plug-In . SVG Version: 6.00 Build 0)  -->
<svg version="1.1" id="Livello_1" xmlns="http://www.w3.org/2000/svg" xmlns:xlink="http://www.w3.org/1999/xlink" x="0px" y="0px"
	 viewBox="0 0 512 512" style="enable-background:new 0 0 512 512;" xml:space="preserve">
<style type="text/css">
	.st0{fill:#FFFFFF;}
</style>
<g transform="translate(0.000000,512.000000) scale(0.100000,-0.100000)">
	<path class="st0" d="M3643,3647c-225,226-528,380-838,428c-258,39-491,20-734-61c-454-151-815-512-965-965c-107-322-107-655-1-975
		c128-387,404-703,774-888c424-213,939-213,1362,0c368,184,646,504,774,888C4199,2628,4056,3234,3643,3647z M3702.2,2339.8
		c-61.7-59.3-128.2-85.9-211.7-84.7c-87.1,0-162.1,32.6-219,96.8l-46,50.8h-229.9l-29-58.1c-37.5-73.8-117.4-153.7-191.2-191.2
		l-58.1-29v-229.9l50.8-46c64.2-56.9,96.8-131.9,96.8-219c1.2-83.5-25.4-150-84.7-211.7c-62.9-65.4-125.8-92-220.2-92
		c-99.2,0-159.7,26.6-225.1,99.2c-114.9,124.6-108.9,307.4,14.6,419.9l53.2,49.6v229.9l-58.1,29c-73.8,37.5-153.6,117.4-191.2,191.2
		l-29,58.1h-229.9l-46-50.8c-56.8-64.2-131.9-96.8-219-96.8c-83.5-1.2-150,25.4-211.7,84.7c-65.4,62.9-92,125.8-92,220.2
		c0,99.2,26.6,159.7,99.2,225.1c124.7,114.9,307.4,108.9,419.9-14.6l49.6-53.2h229.9l29,58.1c37.6,73.8,117.4,153.7,191.2,191.2
		l58.1,29v229.9l-50.8,46c-26.6,24.2-60.5,69-73.8,98c-29.1,66.5-30.3,173-3.7,237.2c26.7,62.9,96.8,135.5,158.6,164.5
		c31.4,14.5,76.2,23,127,23c94.4,0,157.3-26.6,220.2-92c59.3-61.7,85.9-128.2,84.7-211.7c0-87.1-32.6-162.1-96.8-219l-50.8-46
		v-229.9l58.1-29c73.8-37.5,153.7-117.4,191.2-191.2l29-58.1h229.9l49.6,53.2c112.5,123.5,295.3,129.5,419.9,14.6
		c72.6-65.4,99.2-125.9,99.2-225.1C3794.2,2465.6,3767.6,2402.7,3702.2,2339.8z"/>
	<path class="st0" d="M920,3277c-66-148-124-366-137-513l-6-74H519c-143,0-259,1-259,3c0,36,35,282,51,354c42,194,170,543,199,543
		c6,0,102-52,213-116c111-64,207-121,214-126C945,3341,941,3323,920,3277z"/>
	<path class="st0" d="M937,1772c-40-31-421-243-431-239c-12,5-84,169-123,282c-56,163-92,333-118,563l-6,52h518l6-74
		c13-147,71-365,137-513C941,1797,945,1779,937,1772z"/>
	<path class="st0" d="M1550,1073c0-15-246-433-255-433c-26,0-243,178-360,295s-295,334-295,360c1,9,416,254,432,255c4,0,35-37,70-82
		c80-106,220-246,326-326C1513,1107,1550,1076,1550,1073z"/>
	<path class="st0" d="M2430,777V259l-32,5c-18,3-64,8-103,11c-113,10-310,54-451,100c-138,45-314,122-314,137c0,8,224,402,242,425
		c7,8,25,4,71-17c34-15,103-41,153-58c113-38,262-70,360-79L2430,777z"/>
	<path class="st0" d="M3587,506c-6-14-178-87-311-132c-160-54-299-82-543-109l-43-5v517l75,6c144,13,372,74,510,137
		c44,20,63,24,71,16c6-6,64-103,128-214C3539,610,3589,513,3587,506z"/>
	<path class="st0" d="M4480,1296c0-27-212-286-317-387c-115-110-316-269-339-269c-8,0-254,420-254,433c0,3,37,34,83,69
		c105,80,245,220,325,326c35,45,66,82,69,82c3,0,102-55,219-122C4384,1360,4480,1301,4480,1296z"/>
	<path class="st0" d="M4861,2430l-5-32c-3-18-8-64-11-103c-10-110-50-299-93-430c-46-142-122-326-138-332c-6-2-54,20-105,50
		c-52,30-143,82-204,117c-147,84-138,75-115,120c59,116,134,391,147,536l6,74H4861z"/>
	<path class="st0" d="M4861,2690h-518l-6,74c-13,147-71,365-137,513c-21,46-25,64-17,71c7,5,77,47,157,92c80,46,170,98,200,116
		c30,18,61,32,69,31c8-1,34-47,58-102c87-202,162-479,178-660c3-38,8-85,11-102L4861,2690z"/>
	<path class="st0" d="M4480,3825c0-9-418-255-433-255c-3,0-34,37-69,83c-78,103-229,254-331,330c-42,32-77,61-77,64
		c0,15,246,433,255,433c6,0,60-37,120-82c140-105,347-312,453-453C4443,3885,4480,3831,4480,3825z"/>
	<path class="st0" d="M3587,4613c4-9-208-390-239-430c-7-8-25-4-71,17c-145,65-366,124-513,137l-74,6v258c0,143,1,259,3,259
		c1,0,60-7,131-15c230-27,443-84,660-178C3538,4644,3584,4620,3587,4613z"/>
	<path class="st0" d="M2430,4601v-258l-74-6c-147-13-365-71-513-137c-46-21-64-25-71-17c-18,23-242,417-242,425c0,15,176,92,314,137
		c180,59,404,104,569,114C2429,4860,2430,4841,2430,4601z"/>
	<path class="st0" d="M1550,4047c0-3-37-34-82-69c-106-80-246-220-326-325c-35-46-66-83-69-83c-13,0-432,246-433,254
		c-1,28,221,297,326,396c119,111,306,259,329,259c6,1,65-95,133-213C1495,4149,1550,4050,1550,4047z"/>
	<path class="st0" d="M2488.6,2424.5c-46,25.4-85.9,88.3-85.9,135.5c0,75,82.3,157.3,157.3,157.3c16.9,0,49.6-9.7,71.4-21.8
		c23-12.1,52-41.1,64.1-64.1C2766.9,2503.1,2616.9,2353.1,2488.6,2424.5z"/>
</g>
</svg>
