<?xml version="1.0" encoding="utf-8"?>
<!-- Generator: Adobe Illustrator 26.0.3, SVG Export Plug-In . SVG Version: 6.00 Build 0)  -->
<svg version="1.1" id="Livello_1" xmlns="http://www.w3.org/2000/svg" xmlns:xlink="http://www.w3.org/1999/xlink" x="0px" y="0px"
	 viewBox="0 0 512 512" style="enable-background:new 0 0 512 512;" xml:space="preserve">
<style type="text/css">
	.st0{fill:#FFFFFF;}
</style>
<g transform="translate(0.000000,512.000000) scale(0.100000,-0.100000)">
	<path class="st0" d="M2245,5111c-50-13-112-49-151-88c-65-64-81-117-111-354c-14-118-31-219-36-226s-25-17-45-23
		c-20-7-83-32-140-57l-103-46l-37,30c-173,137-304,234-342,253c-61,31-159,38-236,15c-57-16-67-25-291-248c-223-224-232-234-248-291
		c-23-78-16-175,15-236c13-25,77-115,143-200s125-161,130-167c6-9-5-46-36-115c-25-57-50-120-57-140c-6-20-16-40-23-45
		s-109-22-227-37c-238-30-289-46-353-110c-21-20-49-60-65-89l-27-52v-320v-320l26-56c15-31,43-73,64-94c66-66,118-82,356-112
		c118-14,219-31,226-36s17-25,23-45c7-20,32-83,57-140c31-69,42-106,36-115c-5-6-64-82-130-167s-130-175-143-200
		c-31-62-38-158-15-236c16-56,26-68,233-277c259-261,275-272,407-272c76,0,97,4,135,24c35,19,172,121,368,274c8,7,36-1,90-26
		c42-19,108-46,145-58c49-17,69-30,72-44c2-11,16-112,30-225c28-227,45-279,110-345c21-21,63-49,94-64l56-26h315h315l56,26
		c31,15,73,43,94,64c66,67,82,118,112,356c14,118,31,219,37,225s45,24,86,39s102,41,135,58c70,35,47,46,250-113
		c83-64,170-127,195-140c62-31,158-38,236-15c56,16,68,26,277,233c261,259,272,275,272,407c0,113-8,128-168,335
		c-66,85-125,161-130,167c-6,9,5,46,36,115c25,57,50,120,57,140c6,20,16,40,23,45s108,22,226,36c238,30,287,45,355,112
		c21,21,51,64,65,94l26,56v315v315l-26,56c-15,31-43,73-64,94c-66,66-118,82-356,112c-118,14-219,31-226,36s-17,25-23,45
		c-7,20-32,83-57,140c-31,69-42,106-36,115c5,6,64,82,130,167s130,175,143,200c31,61,38,158,15,236c-16,57-25,67-248,291
		c-224,223-234,232-291,248c-78,23-175,16-236-15c-25-13-112-76-195-140c-203-159-180-148-250-113c-33,17-94,43-135,58s-80,33-86,39
		s-23,107-37,225c-30,238-46,289-112,356c-21,21-63,49-94,64l-56,26l-300,2C2410,5118,2262,5115,2245,5111z M2670,3620
		c124-14,229-44,335-94c238-112,409-283,520-519c192-407,102-894-223-1209c-322-311-790-392-1188-204c-121,58-203,114-296,204
		c-325,315-415,802-223,1209c176,372,538,609,950,622C2567,3629,2623,3625,2670,3620z"/>
</g>
</svg>
