<?xml version="1.0" encoding="utf-8"?>
<!-- Generator: Adobe Illustrator 26.0.3, SVG Export Plug-In . SVG Version: 6.00 Build 0)  -->
<svg version="1.1" id="Livello_1" xmlns="http://www.w3.org/2000/svg" xmlns:xlink="http://www.w3.org/1999/xlink" x="0px" y="0px"
	 viewBox="0 0 512 512" style="enable-background:new 0 0 512 512;" xml:space="preserve">
<style type="text/css">
	.st0{fill:#FFFFFF;}
	.st1{display:none;fill:#FFFFFF;}
	.st2{display:none;}
</style>
<g>
	<g>
		<g transform="translate(0.000000,512.000000) scale(0.100000,-0.100000)">
			<path class="st0" d="M530,2810c-30-30-27-83,6-109c25-20,39-21,275-21h249v-113v-114l-87-40c-151-69-243-153-307-280
				c-46-93-56-152-56-344v-178l26-20c34-26,68-27,94-1c27,27,29,42,32,235c3,161,4,173,30,228c15,31,51,82,80,113
				c44,47,75,67,185,120c73,35,137,72,142,83c7,12,11,97,11,216c0,195,0,196-25,220l-24,25H855C563,2830,549,2829,530,2810z"/>
			<path class="st0" d="M1820,2810c-30-30-27-83,6-109c25-20,39-21,275-21h249v-112v-113l-108-52c-125-60-182-107-246-200
				c-81-119-90-158-94-389l-3-201l27-22c15-11,33-21,40-21c23,0,63,22,70,39c4,9,10,99,13,201c6,185,6,186,39,252
				c51,105,105,151,260,225c107,51,134,68,143,90c6,17,9,104,7,221c-3,190-3,194-27,213c-22,18-43,19-327,19
				C1853,2830,1839,2829,1820,2810z"/>
			<path class="st0" d="M3117,2819c-46-27-41-105,9-128c16-7,109-11,269-11h245v-112v-113l-111-53c-91-43-122-64-177-120
				c-124-124-161-224-169-458c-7-179,1-224,43-243c35-15,47-14,76,9c25,19,26,22,30,197c6,198,15,240,76,331c47,72,115,121,246,178
				c138,60,136,55,136,282c0,175-8,225-40,242C3724,2834,3141,2833,3117,2819z"/>
			<g>
				<g>
					<path class="st1" d="M3988,2225l-3,840l-22,35c-12,20-41,47-65,60l-43,25l-1690,2c-929,0-1703-2-1720-6c-66-16-117-65-135-129
						c-14-51-14-1653,0-1704c14-48,55-97,97-114c48-21,3428-21,3476,0c42,17,83,66,97,114C3988,1374,3990,1645,3988,2225z
						 M1480,1370l-512,2l-513,3l-3,820c-2,762-1,821,15,833c13,9,132,12,515,12h498V1370z M2660,1370H1630v828c0,456,3,832,7,835
						c3,4,235,7,515,7h508V1370z M3838,2195l-3-820l-512-3l-513-2v1670h498c383,0,502-3,515-12C3839,3016,3840,2957,3838,2195z"/>
					<g>
						<path class="st0" d="M4580,4499c-166-32-307-174-346-346c-36-161,29-343,155-439l46-36l5-248c0.6-27.5,1.2-52.1,1.8-74h-0.1
							c0.6-197.6,1.3-395.1,1.9-592.6v-2.8c-0.6-27.4-1.1-60.5-1.6-100.6l-3-230h-149v323c0,240-4,335-14,373
							c-33,125-134,252-244,308c-96,49-153,56-449,56h-271l-18,53c-28,86-61,143-105,180c-80,69-60,67-786,67
							c-261.5,0-418.2,0-513.6-1.4h-3.9c-165.5,0.4-331,0.8-496.5,1.2c-12.3,0.1-26.5,0.2-43,0.2c-202,0-277-49-337-220l-27-75
							l-298-6c-313-6-334-9-429-56c-64-33-165-135-199-201c-57-113-56-91-56-1027c0-938,0-932,58-1039c57-106,181-203,299-235l41-11
							l4-88c5-106,26-154,81-190l41-27l1259-3c198.5-0.3,366.6-0.6,509.1-0.7c50.9-0.1,101.7-0.1,152.6-0.1
							c343.5-0.4,686.9-0.7,1030.4-1h1.1c21.5-0.2,46.8-0.2,76.8-0.2c220,0,257,10,305,82c22,35,27,53,30,134l4,94l60,16
							c113,32,230,129,284,236c49,97,54,139,54,480v318h153c165,0,247,10,301,35c48,23,105,82,130,135c21,44,21,55,24,789l3,745
							l22,15c116,81,197,230,197,363C5121,4339,4861,4554,4580,4499z M1146,3513c16,51,46,98,74,112c20,10,59,15,129,15
							c16.7,0,30.7,0.1,42.6,0.3h0.3c147.3,0.8,294.6,1.7,441.9,2.6c82.2-2.9,242.6-2.9,570.2-2.9c625,0,642-1,674-20
							c30-19,48-47,66-107l7-23H1139L1146,3513z M3740,847c0-36-5-68-12-75c-8-8-66-12-195-12c-62.4,0-103.8-0.1-132.1-1.2
							c-325.3,0.3-650.4,0.6-975.6,1c-0.2-0.3-0.5-0.5-0.7-0.8c-172.7,0.6-377.5,1-611.6,1c-950,0-1242,3-1251,12c-7,7-12,39-12,75
							v63h3190V847z M4072,1195c-50-66-125-110-210-125c-48-7-553-10-1757-8l-1690,3l-53,22c-81,33-136,84-174,161l-33,67v890
							c0,884,0,890,21,936c41,87,119,154,217,185c34,10,360,12,1772,11l1730-2l56-28c66-32,132-99,162-165c22-47,22-49,25-921
							C4141,1247,4143,1288,4072,1195z M4687,2146c-26-19-42-21-210-21h-182l-3,78l-3,77h131c185,0,170-29,170,328
							c0,54.7,0,99.1-0.3,135.3h0.1c0.4,191.4,0.8,382.8,1.2,574.2v2.7c0.4,21.5,0.7,46,1,73.8l3,218l78,2l77,1v-690
							C4750,2163,4752,2194,4687,2146z M4859,3830c-63-50-108-65-194-64c-116,1-206,59-262,167c-22,43-27,65-26,127
							c0,46,6,88,16,110c74,164,255,232,412,155c104-50,159-143,160-265C4965,3962,4930,3887,4859,3830z"/>
						<path class="st0" d="M4965,4060c0-98-35-173-106-230c-63-50-108-65-194-64c-116,1-206,59-262,167c-22,43-27,65-26,127
							c0,46,6,88,16,110c74,164,255,232,412,155C4909,4275,4964,4182,4965,4060z"/>
						<path class="st0" d="M4687,2146c-26-19-42-21-210-21h-182l-3,78l-3,77h131c185,0,170-29,170,328c0,54.7,0,99.1-0.3,135.3h0.1
							c0.4,191.4,0.8,382.8,1.2,574.2v2.7c0.4,21.5,0.7,46,1,73.8l3,218l78,2l77,1v-690C4750,2163,4752,2194,4687,2146z"/>
						<path class="st0" d="M3151,3490H1139l7,23c16,51,46,98,74,112c20,10,59,15,129,15c16.7,0,30.7,0.1,42.6,0.3h0.3
							c147.3,0.8,294.6,1.7,441.9,2.6c82.2-2.9,242.6-2.9,570.2-2.9c625,0,642-1,674-20c30-19,48-47,66-107L3151,3490z"/>
						<path class="st0" d="M4138,2221c-3,872-3,874-25,921c-30,66-96,133-162,165l-56,28l-1730,2c-1412,1-1738-1-1772-11
							c-98-31-176-98-217-185c-21-46-21-52-21-936v-890l33-67c38-77,93-128,174-161l53-22l1690-3c1204-2,1709,1,1757,8
							c85,15,160,59,210,125C4143,1288,4141,1247,4138,2221z M3980,1348c-14-48-55-97-97-114c-48-21-3428-21-3476,0
							c-42,17-83,66-97,114c-14,51-14,1653,0,1704c18,64,69,113,135,129c17,4,791,6,1720,6l1690-2l43-25c24-13,53-40,65-60l22-35
							l3-840C3990,1645,3988,1374,3980,1348z"/>
						<path class="st0" d="M3740,910v-63c0-36-5-68-12-75c-8-8-66-12-195-12c-62.4,0-103.8-0.1-132.1-1.2
							c-325.3,0.3-650.4,0.6-975.6,1c-0.2-0.3-0.5-0.5-0.7-0.8c-172.7,0.6-377.5,1-611.6,1c-950,0-1242,3-1251,12c-7,7-12,39-12,75
							v63H3740z"/>
						<rect x="1461.7" y="2084.8" class="st0" width="28" height="225.9"/>
						<rect x="2796" y="2076.2" class="st0" width="28" height="225.9"/>
					</g>
				</g>
				<g>
					<path class="st2" d="M3988,2225l-3,840l-22,35c-12,20-41,47-65,60l-43,25l-1690,2c-929,0-1703-2-1720-6c-66-16-117-65-135-129
						c-14-51-14-1653,0-1704c14-48,55-97,97-114c48-21,3428-21,3476,0c42,17,83,66,97,114C3988,1374,3990,1645,3988,2225z
						 M1480,1370l-512,2l-513,3l-3,820c-2,762-1,821,15,833c13,9,132,12,515,12h498V1370z M2660,1370H1630v828c0,456,3,832,7,835
						c3,4,235,7,515,7h508V1370z M3838,2195l-3-820l-512-3l-513-2v1670h498c383,0,502-3,515-12C3839,3016,3840,2957,3838,2195z"/>
					<g>
						<path class="st0" d="M4580,4499c-166-32-307-174-346-346c-36-161,29-343,155-439l46-36l5-248c0.6-27.5,1.2-52.1,1.8-74h-0.1
							c0.6-197.6,1.3-395.1,1.9-592.6v-2.8c-0.6-27.4-1.1-60.5-1.6-100.6l-3-230h-149v323c0,240-4,335-14,373
							c-33,125-134,252-244,308c-96,49-153,56-449,56h-271l-18,53c-28,86-61,143-105,180c-80,69-60,67-786,67
							c-261.5,0-418.2,0-513.6-1.4h-3.9c-165.5,0.4-331,0.8-496.5,1.2c-12.3,0.1-26.5,0.2-43,0.2c-202,0-277-49-337-220l-27-75
							l-298-6c-313-6-334-9-429-56c-64-33-165-135-199-201c-57-113-56-91-56-1027c0-938,0-932,58-1039c57-106,181-203,299-235l41-11
							l4-88c5-106,26-154,81-190l41-27l1259-3c198.5-0.3,366.6-0.6,509.1-0.7c50.9-0.1,101.7-0.1,152.6-0.1
							c343.5-0.4,686.9-0.7,1030.4-1h1.1c21.5-0.2,46.8-0.2,76.8-0.2c220,0,257,10,305,82c22,35,27,53,30,134l4,94l60,16
							c113,32,230,129,284,236c49,97,54,139,54,480v318h153c165,0,247,10,301,35c48,23,105,82,130,135c21,44,21,55,24,789l3,745
							l22,15c116,81,197,230,197,363C5121,4339,4861,4554,4580,4499z M1146,3513c16,51,46,98,74,112c20,10,59,15,129,15
							c16.7,0,30.7,0.1,42.6,0.3h0.3c147.3,0.8,294.6,1.7,441.9,2.6c82.2-2.9,242.6-2.9,570.2-2.9c625,0,642-1,674-20
							c30-19,48-47,66-107l7-23H1139L1146,3513z M3740,847c0-36-5-68-12-75c-8-8-66-12-195-12c-62.4,0-103.8-0.1-132.1-1.2
							c-325.3,0.3-650.4,0.6-975.6,1c-0.2-0.3-0.5-0.5-0.7-0.8c-172.7,0.6-377.5,1-611.6,1c-950,0-1242,3-1251,12c-7,7-12,39-12,75
							v63h3190V847z M4072,1195c-50-66-125-110-210-125c-48-7-553-10-1757-8l-1690,3l-53,22c-81,33-136,84-174,161l-33,67v890
							c0,884,0,890,21,936c41,87,119,154,217,185c34,10,360,12,1772,11l1730-2l56-28c66-32,132-99,162-165c22-47,22-49,25-921
							C4141,1247,4143,1288,4072,1195z M4687,2146c-26-19-42-21-210-21h-182l-3,78l-3,77h131c185,0,170-29,170,328
							c0,54.7,0,99.1-0.3,135.3h0.1c0.4,191.4,0.8,382.8,1.2,574.2v2.7c0.4,21.5,0.7,46,1,73.8l3,218l78,2l77,1v-690
							C4750,2163,4752,2194,4687,2146z M4859,3830c-63-50-108-65-194-64c-116,1-206,59-262,167c-22,43-27,65-26,127
							c0,46,6,88,16,110c74,164,255,232,412,155c104-50,159-143,160-265C4965,3962,4930,3887,4859,3830z"/>
						<path class="st0" d="M4965,4060c0-98-35-173-106-230c-63-50-108-65-194-64c-116,1-206,59-262,167c-22,43-27,65-26,127
							c0,46,6,88,16,110c74,164,255,232,412,155C4909,4275,4964,4182,4965,4060z"/>
						<path class="st0" d="M4687,2146c-26-19-42-21-210-21h-182l-3,78l-3,77h131c185,0,170-29,170,328c0,54.7,0,99.1-0.3,135.3h0.1
							c0.4,191.4,0.8,382.8,1.2,574.2v2.7c0.4,21.5,0.7,46,1,73.8l3,218l78,2l77,1v-690C4750,2163,4752,2194,4687,2146z"/>
						<path class="st0" d="M3151,3490H1139l7,23c16,51,46,98,74,112c20,10,59,15,129,15c16.7,0,30.7,0.1,42.6,0.3h0.3
							c147.3,0.8,294.6,1.7,441.9,2.6c82.2-2.9,242.6-2.9,570.2-2.9c625,0,642-1,674-20c30-19,48-47,66-107L3151,3490z"/>
						<path class="st0" d="M4138,2221c-3,872-3,874-25,921c-30,66-96,133-162,165l-56,28l-1730,2c-1412,1-1738-1-1772-11
							c-98-31-176-98-217-185c-21-46-21-52-21-936v-890l33-67c38-77,93-128,174-161l53-22l1690-3c1204-2,1709,1,1757,8
							c85,15,160,59,210,125C4143,1288,4141,1247,4138,2221z M3980,1348c-14-48-55-97-97-114c-48-21-3428-21-3476,0
							c-42,17-83,66-97,114c-14,51-14,1653,0,1704c18,64,69,113,135,129c17,4,791,6,1720,6l1690-2l43-25c24-13,53-40,65-60l22-35
							l3-840C3990,1645,3988,1374,3980,1348z"/>
						<path class="st0" d="M3740,910v-63c0-36-5-68-12-75c-8-8-66-12-195-12c-62.4,0-103.8-0.1-132.1-1.2
							c-325.3,0.3-650.4,0.6-975.6,1c-0.2-0.3-0.5-0.5-0.7-0.8c-172.7,0.6-377.5,1-611.6,1c-950,0-1242,3-1251,12c-7,7-12,39-12,75
							v63H3740z"/>
						<rect x="1461.7" y="2084.8" class="st0" width="28" height="225.9"/>
						<rect x="2796" y="2076.2" class="st0" width="28" height="225.9"/>
					</g>
				</g>
			</g>
		</g>
	</g>
</g>
</svg>
