<?xml version="1.0" encoding="utf-8"?>
<!-- Generator: Adobe Illustrator 26.0.3, SVG Export Plug-In . SVG Version: 6.00 Build 0)  -->
<svg version="1.1" id="Livello_1" xmlns="http://www.w3.org/2000/svg" xmlns:xlink="http://www.w3.org/1999/xlink" x="0px" y="0px"
	 viewBox="0 0 512 512" style="enable-background:new 0 0 512 512;" xml:space="preserve">
<style type="text/css">
	.st0{fill:#FFFFFF;}
</style>
<g transform="translate(0.000000,512.000000) scale(0.100000,-0.100000)">
	<path class="st0" d="M2657,4543l-82-6c-68-4-94-10-144-37c-73-39-124-93-160-169c-25-55-26-62-29-283l-3-228H835l-58,157
		c-51,139-56,159-43,177c10,16,244,105,892,342c483,177,886,322,894,323c8,0,20-3,27-7c14-9,31-47,77-176L2657,4543z"/>
	<path class="st0" d="M3990,4014v-194H2540v194c0,164,3,197,16,210c14,14,92,16,709,16s695-2,709-16C3987,4211,3990,4178,3990,4014z
		"/>
	<path class="st0" d="M4804,2354c-14,14-68,16-457,15c-487,0-506-2-606-62c-165-99-249-292-210-479c26-122,121-248,227-302
		c106-54,131-56,598-56c405,0,432,1,447,18s17,62,17,435C4820,2287,4818,2341,4804,2354z M4099,1851c-24-43-84-81-129-81
		c-13,0-42,9-65,20c-109,53-111,210-3,263C4033,2118,4170,1977,4099,1851z"/>
	<path class="st0" d="M4362.7,1170.4l157.3-1.4V841c0-27.5,0-53-0.1-76.8c0.1-0.1,0-0.2,0-0.3c-19.6-240.7-209.7-433.3-449.4-456.5
		c-0.1-0.1-0.2-0.1-0.3,0h-0.2c-0.1-0.1-0.1-0.1-0.2,0c-27-0.3-56.5-0.5-88.8-0.7c-0.1-0.1-0.1-0.1-0.2,0
		C3708.1,305,3236.2,305,2410,305c-823.9,0-1295.5,0-1568.5,1.7c-0.1-0.1-0.2-0.1-0.3,0c-32,0.1-61.3,0.4-88.1,0.6h-0.4
		c-240,22.9-430.6,215.5-450.3,456.4c0,0.2-0.1,0.4,0,0.6c-0.3,22.2-0.5,46-0.7,71.2v0.1c-1.8,220.5-0.7,561.2,0.3,1094.4
		l2.2,1031.9l0.2,120.5c26.8,218.8,195,393.9,410.4,431.2c47.7,0.7,101.4,1.3,160.2,1.9c747.3,7.3,2325.9,7.3,3071.8-0.1
		c0.1,0.1,0.2,0.1,0.3,0c59-0.5,112.8-1.1,160.5-1.8h0.1c213.8-37.1,381.1-210.1,409.6-426.8l1.1-122.3v-0.1l2.6-293.4l-143.7-1.2
		L3825,2665l-80-28c-10.1-3.5-20-7.2-29.8-11.1C3477,2533,3309.3,2350.1,3244,2110c-23-81-25-280-5-359c55-217,202-402,395-496
		c38.2-18.7,67.7-32.9,96.1-43.8c87.2-33.4,165-35.4,452.9-39.2L4362.7,1170.4z"/>
</g>
</svg>
